<svg id="Layer_1" data-name="Layer 1" xmlns="http://www.w3.org/2000/svg" viewBox="0 0 958.14 911.85"><defs><style>.cls-1{fill:none;stroke:#231f20;stroke-miterlimit:10;}</style></defs><path class="cls-1" d="M582.13,516.55,557.4,792.4,706.34,872v78.97L540.224,901.65s-8.582,26.65-24.975,26.65c-14.653,0-24.975-26.65-24.975-26.65L324.16,950.97V872l148.946-79.6L448.37,516.55,36.68,648.05v-78.2L445.4,340.31V185.82c0-80.37,31.27-145.53,69.85-145.53s69.85,65.16,69.85,145.53V340.31L993.82,569.85v78.2Z" transform="translate(-36.18 -39.79)"/><path class="cls-1" d="M585.1,185.82" transform="translate(-36.18 -39.79)"/><path class="cls-1" d="M445.4,185.82" transform="translate(-36.18 -39.79)"/><path class="cls-1" d="M585.1,185.82" transform="translate(-36.18 -39.79)"/></svg>